<svg height="512pt" viewBox="0 0 512 512" width="512pt" xmlns="http://www.w3.org/2000/svg"><path d="m436.992188 0h-55.269532c-8.285156 0-15 6.714844-15 15s6.714844 15 15 15h55.269532c24.816406 0 45.007812 20.191406 45.007812 45.007812v56.601563c0 8.285156 6.714844 15 15 15s15-6.714844 15-15v-56.601563c0-41.359374-33.648438-75.007812-75.007812-75.007812zm0 0"/><path d="m132.609375.667969h-56.601563c-41.359374 0-75.007812 33.648437-75.007812 75.007812v55.269531c0 8.28125 6.714844 15 15 15s15-6.71875 15-15v-55.269531c0-24.816406 20.191406-45.007812 45.007812-45.007812h56.601563c8.285156 0 15-6.71875 15-15 0-8.285157-6.714844-15-15-15zm0 0"/><path d="m80.949219 366.011719v-220.097657c0-8.285156-6.71875-15-15-15-8.285157 0-15 6.714844-15 15v220.097657c0 8.285156 6.714843 15 15 15 8.28125 0 15-6.714844 15-15zm0 0"/><path d="m120.355469 317.96875c8.285156 0 15-6.714844 15-15v-157.054688c0-8.285156-6.714844-15-15-15-8.28125 0-15 6.714844-15 15v157.054688c0 8.285156 6.71875 15 15 15zm0 0"/><path d="m174.765625 130.914062c-8.285156 0-15 6.714844-15 15v157.054688c0 8.285156 6.714844 15 15 15s15-6.714844 15-15v-157.054688c0-8.285156-6.714844-15-15-15zm0 0"/><path d="m229.175781 130.914062c-8.285156 0-15 6.714844-15 15v157.054688c0 8.285156 6.714844 15 15 15 8.285157 0 15-6.714844 15-15v-157.054688c0-8.285156-6.714843-15-15-15zm0 0"/><path d="m283.585938 130.914062c-8.285157 0-15 6.714844-15 15v157.054688c0 8.285156 6.714843 15 15 15 8.28125 0 15-6.714844 15-15v-157.054688c0-8.285156-6.71875-15-15-15zm0 0"/><path d="m337.992188 130.914062c-8.28125 0-15 6.714844-15 15v157.054688c0 8.285156 6.71875 15 15 15 8.285156 0 15-6.714844 15-15v-157.054688c0-8.285156-6.714844-15-15-15zm0 0"/><path d="m392.402344 317.96875c8.285156 0 15-6.714844 15-15v-157.054688c0-8.285156-6.714844-15-15-15s-15 6.714844-15 15v157.054688c0 8.285156 6.714844 15 15 15zm0 0"/><path d="m105.355469 365.78125c0 8.285156 6.71875 15 15 15 8.285156 0 15-6.714844 15-15v-12.125c0-8.285156-6.714844-15-15-15-8.28125 0-15 6.714844-15 15zm0 0"/><path d="m174.765625 338.65625c-8.285156 0-15 6.714844-15 15v12.125c0 8.285156 6.714844 15 15 15s15-6.714844 15-15v-12.125c0-8.285156-6.714844-15-15-15zm0 0"/><path d="m229.175781 338.65625c-8.285156 0-15 6.714844-15 15v12.125c0 8.285156 6.714844 15 15 15 8.285157 0 15-6.714844 15-15v-12.125c0-8.285156-6.714843-15-15-15zm0 0"/><path d="m283.585938 338.65625c-8.285157 0-15 6.714844-15 15v12.125c0 8.285156 6.714843 15 15 15 8.28125 0 15-6.714844 15-15v-12.125c0-8.285156-6.71875-15-15-15zm0 0"/><path d="m337.992188 338.65625c-8.28125 0-15 6.714844-15 15v12.125c0 8.285156 6.71875 15 15 15 8.285156 0 15-6.714844 15-15v-12.125c0-8.285156-6.714844-15-15-15zm0 0"/><path d="m377.402344 365.78125c0 8.285156 6.714844 15 15 15s15-6.714844 15-15v-12.125c0-8.285156-6.714844-15-15-15s-15 6.714844-15 15zm0 0"/><path d="m446.8125 381.011719c8.28125 0 15-6.714844 15-15v-220.097657c0-8.285156-6.71875-15-15-15-8.285156 0-15 6.714844-15 15v220.097657c0 8.285156 6.714844 15 15 15zm0 0"/><path d="m496 366.390625c-8.285156 0-15 6.714844-15 15v55.265625c0 24.820312-20.191406 45.011719-45.007812 45.011719h-56.601563c-8.285156 0-15 6.714843-15 15 0 8.28125 6.714844 15 15 15h56.601563c41.359374 0 75.007812-33.648438 75.007812-75.011719v-55.265625c0-8.285156-6.714844-15-15-15zm0 0"/><path d="m130.277344 482h-55.269532c-24.816406 0-45.007812-20.191406-45.007812-45.007812v-56.601563c0-8.285156-6.714844-15-15-15s-15 6.714844-15 15v56.601563c0 41.359374 33.648438 75.007812 75.007812 75.007812h55.269532c8.285156 0 15-6.714844 15-15s-6.714844-15-15-15zm0 0"/></svg>