<svg id="Layer_5" enable-background="new 0 0 64 64" height="512" viewBox="0 0 64 64" width="512" xmlns="http://www.w3.org/2000/svg"><g><path d="m54.883 25h-7.766l-2 16h-8.117v-16h-4v-4h-6v-10h-2.095l-1-10h-5.811l-1 10h-2.094v-4h-8v4h-2v23.641c-2.46 2.367-4 5.684-4 9.359s1.54 6.992 4 9.359v9.641h56v-22h-4.117zm-1.766 2 .25 2h-4.734l.25-2zm-4.734 4h5.234l1.25 10h-7.735zm-13.383 10h-8.363c-1.131-4.759-4.877-8.506-9.637-9.637v-4.363h18zm-17.286 13.341c.553-.919 1.023-2.046 1.391-3.341h3.373c-1.246 1.507-2.89 2.665-4.764 3.341zm-12.193-3.341h3.373c.368 1.295.837 2.422 1.391 3.341-1.873-.676-3.517-1.834-4.764-3.341zm4.765-17.341c-.554.919-1.023 2.046-1.391 3.341h-3.374c1.247-1.507 2.891-2.665 4.765-3.341zm.714-14.659h-4v-2h4zm0 2v2h-4v-2zm0 4v2h-4v-2zm8.978 18c-.046-1.419-.184-2.763-.409-4h4.216c.626 1.221 1.034 2.57 1.164 4zm-9.957 0c.052-1.447.217-2.791.46-4h7.038c.244 1.209.408 2.553.46 4zm7.958 2c-.052 1.447-.217 2.791-.46 4h-7.038c-.244-1.209-.408-2.553-.46-4zm1.126-8c-.368-1.295-.837-2.422-1.391-3.341 1.874.675 3.518 1.834 4.764 3.341zm-2.096 0h-6.019c.789-2.473 1.935-4 3.009-4s2.221 1.527 3.01 4zm-8.578 2c-.225 1.237-.363 2.581-.409 4h-4.971c.13-1.43.537-2.779 1.164-4zm-.409 6c.046 1.419.184 2.763.409 4h-4.217c-.626-1.221-1.034-2.57-1.164-4zm2.969 6h6.019c-.789 2.473-1.935 4-3.009 4s-2.221-1.527-3.01-4zm12.795-2h-4.216c.225-1.237.363-2.581.409-4h4.971c-.13 1.43-.538 2.779-1.164 4zm7.214-24h-10v-2h10zm-6-4h-6v4h-4v6.051c-.331-.026-.662-.051-1-.051s-.669.025-1 .051v-18.051h12zm-5.095-18h2.189l.8 8h-3.79zm-10.905 6h4v2h-4zm2 4v2h-4v-2zm-4 16h4v2.363c-1.441.342-2.788.921-4 1.7zm0 25.937c2.023 1.299 4.422 2.063 7 2.063s4.977-.764 7-2.063v6.063h-14zm24 6.063h-4v-8h4zm12 0h-4v-8h4zm12 0h-4v-8h4zm2 0v-10h-8v10h-4v-10h-8v10h-4v-10h-8v10h-2v-7.641c1.768-1.701 3.051-3.894 3.637-6.359h32.363v14zm2-16h-32.051c.026-.331.051-.662.051-1s-.025-.669-.051-1h32.051z"/><path d="m58 11h-2.027c-.25-2.247-2.16-4-4.473-4h-2.5v2h2.5c1.379 0 2.5 1.122 2.5 2.5v1.5h4c1.654 0 3 1.346 3 3s-1.346 3-3 3h-3c-1.654 0-3 1.346-3 3v1h2v-1c0-.551.448-1 1-1h3c2.757 0 5-2.243 5-5s-2.243-5-5-5z"/><path d="m40 21h7c.552 0 1 .449 1 1v1h2v-1c0-1.654-1.346-3-3-3h-7c-.552 0-1-.449-1-1s.448-1 1-1h6v-2h-2c-1.654 0-3-1.346-3-3s1.346-3 3-3h3v-2h-3c-2.757 0-5 2.243-5 5 0 1.13.391 2.162 1.026 3h-.026c-1.654 0-3 1.346-3 3s1.346 3 3 3z"/><path d="m31 29h2v2h-2z"/><path d="m23 29h2v2h-2z"/><path d="m19 29h2v2h-2z"/><path d="m27 29h2v2h-2z"/><path d="m27 33h2v2h-2z"/><path d="m31 33h2v2h-2z"/><path d="m27 37h2v2h-2z"/><path d="m31 37h2v2h-2z"/></g></svg>