<?xml version="1.0" encoding="iso-8859-1"?>
<!-- Generator: Adobe Illustrator 19.0.0, SVG Export Plug-In . SVG Version: 6.00 Build 0)  -->
<svg version="1.1" id="Capa_1" xmlns="http://www.w3.org/2000/svg" xmlns:xlink="http://www.w3.org/1999/xlink" x="0px" y="0px"
	 viewBox="0 0 486.554 486.554" style="enable-background:new 0 0 486.554 486.554;" xml:space="preserve">
<linearGradient id="SVGID_1_" gradientUnits="userSpaceOnUse" x1="352.1452" y1="495.2796" x2="352.1452" y2="15.2796" gradientTransform="matrix(1 0 0 -1 0 488.5592)">
	<stop  offset="0" style="stop-color:#00EFD1"/>
	<stop  offset="1" style="stop-color:#00ACEA"/>
</linearGradient>
<path style="fill:url(#SVGID_1_);" d="M352.145,196.624c-28.63,0-51.84,23.21-51.84,51.84s23.21,51.84,51.84,51.84
	s51.84-23.21,51.84-51.84l0,0C403.975,219.837,380.771,196.634,352.145,196.624z M326.225,279.568
	c-5.726,0-10.368-4.642-10.368-10.368s4.642-10.368,10.368-10.368c5.726,0,10.368,4.642,10.368,10.368
	C336.576,274.918,331.944,279.55,326.225,279.568z M362.513,253.648c-11.452,0-20.736-9.284-20.736-20.736
	c0-11.452,9.284-20.736,20.736-20.736c11.452,0,20.736,9.284,20.736,20.736v0c0.003,11.449-9.275,20.733-20.724,20.736
	C362.521,253.648,362.517,253.648,362.513,253.648z"/>
<g>
	
		<linearGradient id="SVGID_2_" gradientUnits="userSpaceOnUse" x1="134.4192" y1="495.2796" x2="134.4192" y2="15.2796" gradientTransform="matrix(1 0 0 -1 0 488.5592)">
		<stop  offset="0" style="stop-color:#00EFD1"/>
		<stop  offset="1" style="stop-color:#00ACEA"/>
	</linearGradient>
	<path style="fill:url(#SVGID_2_);" d="M186.259,248.464c0.001-28.63-23.209-51.84-51.839-51.841
		c-28.63-0.001-51.84,23.209-51.841,51.839s23.209,51.84,51.839,51.841c0,0,0.001,0,0.001,0
		C163.045,300.292,186.248,277.089,186.259,248.464z M108.499,279.564c-5.726,0-10.368-4.642-10.368-10.368
		c0-5.726,4.642-10.368,10.368-10.368c5.726,0,10.368,4.642,10.368,10.368c-0.015,5.72-4.648,10.354-10.368,10.372L108.499,279.564z
		 M144.787,253.644c-11.452,0-20.736-9.284-20.736-20.736s9.284-20.736,20.736-20.736s20.736,9.284,20.736,20.736v0
		c0.006,11.449-9.271,20.734-20.72,20.74c-0.005,0-0.011,0-0.016,0V253.644z"/>
	
		<linearGradient id="SVGID_3_" gradientUnits="userSpaceOnUse" x1="243.2769" y1="495.2796" x2="243.2769" y2="15.2796" gradientTransform="matrix(1 0 0 -1 0 488.5592)">
		<stop  offset="0" style="stop-color:#00EFD1"/>
		<stop  offset="1" style="stop-color:#00ACEA"/>
	</linearGradient>
	<path style="fill:url(#SVGID_3_);" d="M243.282,0.002C108.928-0.005,0.007,108.905,0,243.259
		c-0.003,64.529,25.632,126.416,71.264,172.042c95.004,95.003,249.035,95.002,344.038-0.002s95.002-249.035-0.002-344.038
		C369.779,25.488,307.838-0.172,243.282,0.002L243.282,0.002z M243.282,466.558c-123.116,0-223.278-100.162-223.278-223.278
		S120.166,20.002,243.282,20.002S466.56,120.164,466.56,243.28S366.398,466.558,243.282,466.558z"/>
	
		<linearGradient id="SVGID_4_" gradientUnits="userSpaceOnUse" x1="107.4497" y1="495.2796" x2="107.4497" y2="15.2796" gradientTransform="matrix(1 0 0 -1 0 488.5592)">
		<stop  offset="0" style="stop-color:#00EFD1"/>
		<stop  offset="1" style="stop-color:#00ACEA"/>
	</linearGradient>
	<path style="fill:url(#SVGID_4_);" d="M130.182,174.344l-1.689-19.928c-17.668,1.482-33.738,10.818-43.776,25.433l16.465,11.363
		C107.83,181.525,118.475,175.333,130.182,174.344L130.182,174.344z"/>
	
		<linearGradient id="SVGID_5_" gradientUnits="userSpaceOnUse" x1="379.1147" y1="495.2796" x2="379.1147" y2="15.2796" gradientTransform="matrix(1 0 0 -1 0 488.5592)">
		<stop  offset="0" style="stop-color:#00EFD1"/>
		<stop  offset="1" style="stop-color:#00ACEA"/>
	</linearGradient>
	<path style="fill:url(#SVGID_5_);" d="M358.07,154.416l-1.688,19.928c11.709,0.988,22.357,7.18,29.006,16.868l16.459-11.363
		C391.809,165.233,375.739,155.897,358.07,154.416L358.07,154.416z"/>
	
		<linearGradient id="SVGID_6_" gradientUnits="userSpaceOnUse" x1="243.2817" y1="495.2796" x2="243.2817" y2="15.2796" gradientTransform="matrix(1 0 0 -1 0 488.5592)">
		<stop  offset="0" style="stop-color:#00EFD1"/>
		<stop  offset="1" style="stop-color:#00ACEA"/>
	</linearGradient>
	<path style="fill:url(#SVGID_6_);" d="M324.082,340.294c-4.11-4.611-10.289-11.577-22.1-11.577c-11.85,0-18.057,6.98-22.175,11.6
		c-3.53,3.96-4.61,4.886-7.195,4.886c-2.619,0-3.71-0.93-7.257-4.908c-4.11-4.611-10.319-11.577-22.13-11.577
		s-18.031,6.977-22.14,11.594c-3.527,3.964-4.614,4.891-7.2,4.891s-3.671-0.926-7.2-4.886c-4.118-4.619-10.341-11.6-22.19-11.6
		c-11.822,0-17.968,6.977-22.077,11.594c-3.527,3.969-5.136,4.891-7.136,4.891v20c12,0,17.969-6.978,22.077-11.6
		c3.528-3.964,4.583-4.89,7.169-4.89c2.619,0,3.7,0.93,7.245,4.908c4.11,4.61,10.313,11.577,22.124,11.577s18.028-6.978,22.136-11.6
		c3.528-3.964,4.614-4.89,7.2-4.89s3.672,0.925,7.2,4.886c4.118,4.619,10.34,11.6,22.19,11.6c11.81,0,18.021-6.967,22.131-11.577
		c3.547-3.978,4.642-4.908,7.261-4.908c2.585,0,3.609,0.925,7.139,4.886c4.118,4.619,10.127,11.6,22.127,11.6v-20
		C329.282,345.202,327.631,344.272,324.082,340.294L324.082,340.294z"/>
</g>
<g>
</g>
<g>
</g>
<g>
</g>
<g>
</g>
<g>
</g>
<g>
</g>
<g>
</g>
<g>
</g>
<g>
</g>
<g>
</g>
<g>
</g>
<g>
</g>
<g>
</g>
<g>
</g>
<g>
</g>
</svg>
