<?xml version="1.0" encoding="iso-8859-1"?>
<!-- Generator: Adobe Illustrator 19.0.0, SVG Export Plug-In . SVG Version: 6.00 Build 0)  -->
<svg version="1.1" id="Capa_1" xmlns="http://www.w3.org/2000/svg" xmlns:xlink="http://www.w3.org/1999/xlink" x="0px" y="0px"
	 viewBox="0 0 512 512" style="enable-background:new 0 0 512 512;" xml:space="preserve">
<g>
	<g>
		<path d="M406,61h-75V45c0-24.813-20.187-45-45-45h-60c-24.813,0-45,20.187-45,45v16h-75c-24.813,0-45,20.187-45,45v30
			c0,8.284,6.716,15,15,15h16.194l26.565,319.737C120.688,493.875,140.386,512,163.604,512h184.792
			c23.218,0,42.916-18.125,44.845-41.267L419.806,151H436c8.284,0,15-6.716,15-15v-30C451,81.187,430.813,61,406,61z M211,45
			c0-8.271,6.729-15,15-15h60c8.271,0,15,6.729,15,15v16h-90V45z M363.344,468.245c-0.643,7.713-7.209,13.755-14.948,13.755H163.604
			c-7.739,0-14.306-6.042-14.948-13.751L122.298,151h267.404L363.344,468.245z M421,121H91v-15c0-8.271,6.729-15,15-15h300
			c8.271,0,15,6.729,15,15V121z"/>
	</g>
</g>
<g>
	<g>
		<path d="M256,181c-8.284,0-15,6.716-15,15v241c0,8.284,6.716,15,15,15s15-6.716,15-15V196C271,187.716,264.284,181,256,181z"/>
	</g>
</g>
<g>
	<g>
		<path d="M316,181c-8.284,0-15,6.716-15,15v241c0,8.284,6.716,15,15,15s15-6.716,15-15V196C331,187.716,324.284,181,316,181z"/>
	</g>
</g>
<g>
	<g>
		<path d="M196,181c-8.284,0-15,6.716-15,15v241c0,8.284,6.716,15,15,15s15-6.716,15-15V196C211,187.716,204.284,181,196,181z"/>
	</g>
</g>
<g>
</g>
<g>
</g>
<g>
</g>
<g>
</g>
<g>
</g>
<g>
</g>
<g>
</g>
<g>
</g>
<g>
</g>
<g>
</g>
<g>
</g>
<g>
</g>
<g>
</g>
<g>
</g>
<g>
</g>
</svg>
